<svg width="126" height="126" viewBox="0 0 126 126" fill="none" xmlns="http://www.w3.org/2000/svg">
<path d="M70.1422 87.5402C73.3139 87.5402 74.9022 83.7055 72.6594 81.4629L16.7084 25.5173C15.3181 24.127 15.318 21.8729 16.7083 20.4826L20.4829 16.7081C21.8731 15.3179 24.127 15.3178 25.5173 16.7079L81.4631 72.6484C83.7058 74.8909 87.5402 73.3025 87.5402 70.131V35.0309C87.5402 33.0648 89.134 31.471 91.1001 31.471H96.4401C98.4062 31.471 100 33.0648 100 35.0309V96.4401C100 98.4062 98.4062 100 96.4401 100H35.0309C33.0648 100 31.471 98.4062 31.471 96.4401V91.1002C31.471 89.1341 33.0648 87.5402 35.0309 87.5402H70.1422Z" fill="#FD733C"/>
</svg>
