<svg width="226" height="49" viewBox="0 0 226 49" fill="none" xmlns="http://www.w3.org/2000/svg">
<path d="M127.125 17.6075L127.125 17.6069C127.125 17.4735 127.155 17.3419 127.214 17.2221C127.272 17.1024 127.357 16.9975 127.463 16.9157C127.463 16.9157 127.463 16.9156 127.463 16.9156L141.463 6.02718L141.463 6.02713C141.616 5.90765 141.805 5.84277 142 5.84277C142.195 5.84277 142.384 5.90765 142.537 6.02713L142.537 6.02718L156.537 16.9156C156.642 16.9975 156.728 17.1023 156.786 17.2221C156.845 17.3419 156.875 17.4735 156.875 17.6069V17.6075V36C156.875 36.2321 156.783 36.4546 156.619 36.6187C156.455 36.7828 156.232 36.875 156 36.875H128C127.768 36.875 127.545 36.7828 127.381 36.6187L126.763 37.2374L127.381 36.6187C127.217 36.4546 127.125 36.2321 127.125 36L127.125 17.6075Z" stroke="#005DFF" stroke-width="1.75"/>
<path d="M143.75 11.5L153.375 18.5V31.625H135" stroke="#005DFF" stroke-width="1.85294" stroke-linecap="square" stroke-linejoin="round"/>
<path d="M1.472 31.968H3.584V17.632H1.472V13.6H11.296C12.3627 13.6 13.3013 13.7493 14.112 14.048C14.944 14.3467 15.6373 14.752 16.192 15.264C16.768 15.776 17.1947 16.3947 17.472 17.12C17.7707 17.824 17.92 18.592 17.92 19.424V19.808C17.92 21.088 17.5573 22.112 16.832 22.88C16.128 23.648 15.232 24.1813 14.144 24.48V25.056C15.232 25.3547 16.128 25.8987 16.832 26.688C17.5573 27.456 17.92 28.48 17.92 29.76V30.144C17.92 30.976 17.7707 31.7547 17.472 32.48C17.1947 33.184 16.768 33.8027 16.192 34.336C15.6373 34.848 14.944 35.2533 14.112 35.552C13.3013 35.8507 12.3627 36 11.296 36H1.472V31.968ZM7.808 31.968H10.88C11.776 31.968 12.5013 31.776 13.056 31.392C13.6107 31.008 13.888 30.368 13.888 29.472V29.28C13.888 28.384 13.6107 27.744 13.056 27.36C12.5013 26.976 11.776 26.784 10.88 26.784H7.808V31.968ZM7.808 22.752H10.88C11.776 22.752 12.5013 22.5707 13.056 22.208C13.6107 21.824 13.888 21.184 13.888 20.288V20.096C13.888 19.2 13.6107 18.5707 13.056 18.208C12.5013 17.824 11.776 17.632 10.88 17.632H7.808V22.752ZM38.5378 18.272V36H34.0258V33.76C33.4498 34.528 32.6924 35.136 31.7538 35.584C30.8364 36.0107 29.8338 36.224 28.7458 36.224C27.3591 36.224 26.1324 35.936 25.0658 35.36C23.9991 34.7627 23.1564 33.8987 22.5378 32.768C21.9404 31.616 21.6418 30.2507 21.6418 28.672V18.272H26.1218V28.032C26.1218 29.44 26.4738 30.528 27.1778 31.296C27.8818 32.0427 28.8418 32.416 30.0578 32.416C31.2951 32.416 32.2658 32.0427 32.9698 31.296C33.6738 30.528 34.0258 29.44 34.0258 28.032V18.272H38.5378ZM41.806 27.072C41.806 25.28 42.158 23.6907 42.862 22.304C43.5873 20.9173 44.5687 19.8507 45.806 19.104C47.0433 18.3573 48.4193 17.984 49.934 17.984C51.086 17.984 52.1847 18.24 53.23 18.752C54.2753 19.2427 55.1073 19.904 55.726 20.736V12.32H60.27V36H55.726V33.376C55.1713 34.2507 54.3927 34.9547 53.39 35.488C52.3873 36.0213 51.2247 36.288 49.902 36.288C48.4087 36.288 47.0433 35.904 45.806 35.136C44.5687 34.368 43.5873 33.2907 42.862 31.904C42.158 30.496 41.806 28.8853 41.806 27.072ZM55.758 27.136C55.758 26.048 55.5447 25.12 55.118 24.352C54.6913 23.5627 54.1153 22.9653 53.39 22.56C52.6647 22.1333 51.886 21.92 51.054 21.92C50.222 21.92 49.454 22.1227 48.75 22.528C48.046 22.9333 47.47 23.5307 47.022 24.32C46.5953 25.088 46.382 26.0053 46.382 27.072C46.382 28.1387 46.5953 29.0773 47.022 29.888C47.47 30.6773 48.046 31.2853 48.75 31.712C49.4753 32.1387 50.2433 32.352 51.054 32.352C51.886 32.352 52.6647 32.1493 53.39 31.744C54.1153 31.3173 54.6913 30.72 55.118 29.952C55.5447 29.1627 55.758 28.224 55.758 27.136ZM71.5895 17.984C72.9122 17.984 74.0748 18.2507 75.0775 18.784C76.0802 19.296 76.8695 19.968 77.4455 20.8V18.272H81.9575V36.128C81.9575 37.7707 81.6268 39.232 80.9655 40.512C80.3042 41.8133 79.3122 42.8373 77.9895 43.584C76.6668 44.352 75.0668 44.736 73.1895 44.736C70.6722 44.736 68.6028 44.1493 66.9815 42.976C65.3815 41.8027 64.4748 40.2027 64.2615 38.176H68.7095C68.9442 38.9867 69.4455 39.6267 70.2135 40.096C71.0028 40.5867 71.9522 40.832 73.0615 40.832C74.3628 40.832 75.4188 40.4373 76.2295 39.648C77.0402 38.88 77.4455 37.7067 77.4455 36.128V33.376C76.8695 34.208 76.0695 34.9013 75.0455 35.456C74.0428 36.0107 72.8908 36.288 71.5895 36.288C70.0962 36.288 68.7308 35.904 67.4935 35.136C66.2562 34.368 65.2748 33.2907 64.5495 31.904C63.8455 30.496 63.4935 28.8853 63.4935 27.072C63.4935 25.28 63.8455 23.6907 64.5495 22.304C65.2748 20.9173 66.2455 19.8507 67.4615 19.104C68.6988 18.3573 70.0748 17.984 71.5895 17.984ZM77.4455 27.136C77.4455 26.048 77.2322 25.12 76.8055 24.352C76.3788 23.5627 75.8028 22.9653 75.0775 22.56C74.3522 22.1333 73.5735 21.92 72.7415 21.92C71.9095 21.92 71.1415 22.1227 70.4375 22.528C69.7335 22.9333 69.1575 23.5307 68.7095 24.32C68.2828 25.088 68.0695 26.0053 68.0695 27.072C68.0695 28.1387 68.2828 29.0773 68.7095 29.888C69.1575 30.6773 69.7335 31.2853 70.4375 31.712C71.1628 32.1387 71.9308 32.352 72.7415 32.352C73.5735 32.352 74.3522 32.1493 75.0775 31.744C75.8028 31.3173 76.3788 30.72 76.8055 29.952C77.2322 29.1627 77.4455 28.224 77.4455 27.136ZM102.813 26.752C102.813 27.392 102.77 27.968 102.685 28.48H89.725C89.8317 29.76 90.2797 30.7627 91.069 31.488C91.8583 32.2133 92.829 32.576 93.981 32.576C95.645 32.576 96.829 31.8613 97.533 30.432H102.365C101.853 32.1387 100.872 33.5467 99.421 34.656C97.9703 35.744 96.189 36.288 94.077 36.288C92.3703 36.288 90.8343 35.9147 89.469 35.168C88.125 34.4 87.069 33.3227 86.301 31.936C85.5543 30.5493 85.181 28.9493 85.181 27.136C85.181 25.3013 85.5543 23.6907 86.301 22.304C87.0477 20.9173 88.093 19.8507 89.437 19.104C90.781 18.3573 92.3277 17.984 94.077 17.984C95.7623 17.984 97.2663 18.3467 98.589 19.072C99.933 19.7973 100.968 20.832 101.693 22.176C102.44 23.4987 102.813 25.024 102.813 26.752ZM98.173 25.472C98.1517 24.32 97.7357 23.4027 96.925 22.72C96.1143 22.016 95.1223 21.664 93.949 21.664C92.8397 21.664 91.901 22.0053 91.133 22.688C90.3863 23.3493 89.9277 24.2773 89.757 25.472H98.173ZM111.299 21.952V30.528C111.299 31.1253 111.438 31.5627 111.715 31.84C112.014 32.096 112.504 32.224 113.187 32.224H115.267V36H112.451C108.675 36 106.787 34.1653 106.787 30.496V21.952H104.675V18.272H106.787V13.888H111.299V18.272H115.267V21.952H111.299Z" fill="#FAFAFA"/>
<path d="M180.072 22.064C180.072 21.3387 179.923 20.6987 179.624 20.144C179.347 19.5893 178.963 19.1307 178.472 18.768C177.981 18.4053 177.416 18.128 176.776 17.936C176.136 17.744 175.464 17.648 174.76 17.648C174.141 17.648 173.555 17.7333 173 17.904C172.445 18.0533 171.944 18.2773 171.496 18.576C171.069 18.8747 170.728 19.248 170.472 19.696C170.216 20.1227 170.088 20.624 170.088 21.2V21.392C170.088 22.0107 170.216 22.544 170.472 22.992C170.728 23.4187 171.101 23.792 171.592 24.112C172.104 24.4107 172.733 24.6667 173.48 24.88C174.227 25.072 175.101 25.2427 176.104 25.392C178.451 25.7547 180.179 26.448 181.288 27.472C182.397 28.4747 182.952 29.8293 182.952 31.536V31.92C182.952 32.88 182.781 33.7653 182.44 34.576C182.12 35.3653 181.629 36.048 180.968 36.624C180.328 37.2 179.528 37.648 178.568 37.968C177.608 38.288 176.499 38.448 175.24 38.448C173.811 38.448 172.541 38.2453 171.432 37.84C170.344 37.4133 169.427 36.8373 168.68 36.112C167.955 35.3653 167.4 34.5013 167.016 33.52C166.632 32.5173 166.44 31.4293 166.44 30.256V29.296H169.128V30.064C169.128 32.0267 169.661 33.4987 170.728 34.48C171.816 35.4613 173.32 35.952 175.24 35.952C176.904 35.952 178.152 35.5893 178.984 34.864C179.837 34.1173 180.264 33.136 180.264 31.92V31.728C180.264 30.5547 179.827 29.6587 178.952 29.04C178.099 28.4213 176.701 27.9733 174.76 27.696C173.629 27.5467 172.605 27.3227 171.688 27.024C170.792 26.704 170.024 26.2987 169.384 25.808C168.744 25.296 168.253 24.688 167.912 23.984C167.571 23.28 167.4 22.448 167.4 21.488V21.104C167.4 20.2293 167.581 19.4293 167.944 18.704C168.307 17.9787 168.808 17.3493 169.448 16.816C170.109 16.2827 170.888 15.8773 171.784 15.6C172.701 15.3013 173.704 15.152 174.792 15.152C176.051 15.152 177.171 15.3333 178.152 15.696C179.155 16.0587 179.997 16.5493 180.68 17.168C181.363 17.7653 181.875 18.48 182.216 19.312C182.579 20.1227 182.76 20.976 182.76 21.872V23.216H180.072V22.064ZM187.469 25.7188H184.844V23.7031H187.469V17.9375H189.969V23.7031H192.594V25.7188H189.969V38H187.469V25.7188ZM206.312 30.9844C206.312 29.3698 205.87 28.0729 204.984 27.0938C204.109 26.1042 202.964 25.6094 201.547 25.6094C200.078 25.6094 198.932 26.0625 198.109 26.9688C197.286 27.875 196.875 29.1406 196.875 30.7656C196.875 32.4948 197.286 33.8281 198.109 34.7656C198.943 35.7031 200.12 36.1719 201.641 36.1719C203.099 36.1719 204.24 35.7188 205.062 34.8125C205.896 33.8958 206.312 32.6198 206.312 30.9844ZM208.688 23.7031V38H206.312V35.4062C205.74 36.4479 205.005 37.2448 204.109 37.7969C203.224 38.3385 202.229 38.6094 201.125 38.6094C199.073 38.6094 197.417 37.9062 196.156 36.5C194.906 35.0833 194.281 33.2135 194.281 30.8906C194.281 28.5365 194.891 26.6667 196.109 25.2812C197.328 23.8854 198.958 23.1875 201 23.1875C202.198 23.1875 203.234 23.4583 204.109 24C204.995 24.5312 205.708 25.3281 206.25 26.3906V23.7031H208.688ZM213.016 44.9688L216.891 36.5938L211.281 23.7031H214.109L218.266 33.9688L222.672 23.7031H225.359L215.766 44.9688H213.016Z" fill="#FAFAFA"/>
</svg>
