<svg width="131" height="54" viewBox="0 0 131 54" fill="none" xmlns="http://www.w3.org/2000/svg">
<path d="M7.06547 29.4355C7.09309 29.5075 7.11595 29.6178 7.13405 29.7663C7.14989 29.8963 7.13901 30.0389 7.10141 30.1943C7.06154 30.331 6.99269 30.4619 6.89486 30.5869C6.81334 30.691 6.67974 30.7544 6.49406 30.777C6.05389 30.5669 5.66853 30.2652 5.33798 29.8721C5.12156 29.3332 4.90424 28.7096 4.68603 28.0013C4.48638 27.2907 4.3019 26.55 4.1326 25.7792C3.96104 24.9899 3.80691 24.189 3.67022 23.3765C3.5521 22.5618 3.45594 21.7727 3.38174 21.0091C3.3659 20.8791 3.35482 20.7109 3.3485 20.5044C3.36075 20.2956 3.3927 20.0939 3.44434 19.8992C3.49372 19.6859 3.5662 19.5074 3.66177 19.3639C3.75507 19.2018 3.90385 19.1083 4.10809 19.0834C4.34947 19.054 4.55348 19.1045 4.72012 19.2349C4.88677 19.3654 4.99045 19.5977 5.03118 19.9319C5.10311 20.6769 5.20041 21.4753 5.32305 22.3271C5.46201 23.1582 5.62066 23.9962 5.79901 24.8413C5.97736 25.6863 6.17202 26.5106 6.38298 27.314C6.61024 28.0965 6.83774 28.8037 7.06547 29.4355ZM15.4115 23.2459C15.762 23.1844 16.125 23.2249 16.5004 23.3676C16.8758 23.5103 17.0873 23.7766 17.1348 24.1665C17.1361 24.4867 16.9846 24.7125 16.6803 24.8438C16.3922 24.9542 16.1554 25.0208 15.9697 25.0434C15.5984 25.0887 15.2003 25.1466 14.7755 25.2172C14.3507 25.2878 13.9177 25.3688 13.4766 25.4603C13.5142 26.0775 13.5472 26.6576 13.5757 27.2006C13.6227 27.7414 13.663 28.2264 13.6964 28.6557C13.7277 29.0665 13.7591 29.4018 13.7908 29.6618C13.8224 29.9217 13.8487 30.0598 13.8695 30.0761C14.269 29.9521 14.6906 29.7782 15.1344 29.5546C15.5946 29.31 16.0443 29.0574 16.4836 28.7966C16.9392 28.5149 17.3762 28.2356 17.7947 27.9584C18.2295 27.6605 18.6387 27.3845 19.0223 27.1305C19.1966 27.015 19.3604 26.9668 19.5134 26.9859C19.6851 27.0026 19.7974 27.0737 19.8503 27.1992C19.9124 27.3989 19.9151 27.653 19.8584 27.9614C19.8018 28.2698 19.6675 28.5593 19.4555 28.8301C19.2042 29.0869 18.8645 29.3921 18.4365 29.7457C18.0248 30.0786 17.5748 30.4066 17.0866 30.7299C16.5984 31.0532 16.0975 31.3498 15.5839 31.6197C15.0867 31.8687 14.6361 32.0367 14.2321 32.1236C13.6261 32.2539 13.1416 32.1434 12.7784 31.7919C12.4153 31.4405 12.1789 30.9699 12.0694 30.3803C11.9598 29.7907 11.8668 29.1048 11.7904 28.3227C11.7325 27.5383 11.6689 26.7075 11.5997 25.8303C11.2515 25.9104 10.9125 25.9894 10.5828 26.0673C10.2694 26.1243 9.96642 26.1895 9.67386 26.2628C9.43248 26.2923 9.15646 26.2694 8.84581 26.1942C8.55371 26.1167 8.38844 25.9201 8.34997 25.6045C8.3364 25.4931 8.36471 25.3389 8.43493 25.1419C8.50514 24.9449 8.69241 24.7808 8.99675 24.6494C9.74219 24.4267 10.5734 24.2124 11.4905 24.0064C11.4399 23.1269 11.4019 22.2742 11.3766 21.4481C11.3513 20.6221 11.3258 19.8715 11.3001 19.1963C11.2915 18.9712 11.3327 18.7683 11.4238 18.5876C11.5148 18.4069 11.6253 18.3087 11.7553 18.2928C12.0687 18.2358 12.3759 18.2832 12.6771 18.4349C12.9945 18.5658 13.1668 18.7427 13.194 18.9655C13.1966 19.6058 13.2095 20.3297 13.2325 21.1372C13.2741 21.9424 13.3179 22.7662 13.3641 23.6085C13.7309 23.5261 14.0814 23.4645 14.4156 23.4238C14.7661 23.3623 15.0981 23.303 15.4115 23.2459ZM21.0832 15.2341C20.9632 15.0226 20.8073 14.8249 20.6153 14.6411C20.4233 14.4572 20.2605 14.2038 20.1269 13.8809C19.9449 13.4697 19.8799 13.0913 19.9321 12.7458C20.0027 12.398 20.1601 12.1432 20.4042 11.9816C20.632 11.8408 20.8596 11.7754 21.087 11.7853C21.3143 11.7953 21.5298 11.8633 21.7336 11.9892C21.9351 12.0965 22.1156 12.263 22.275 12.4885C22.4321 12.6955 22.5555 12.9348 22.6451 13.2066C22.7737 13.6431 22.8475 14.1712 22.8664 14.7907C22.904 15.408 22.8869 16.0413 22.8153 16.6907C22.7414 17.3215 22.6107 17.9499 22.4232 18.5757C22.2519 19.1807 22.0334 19.7067 21.7675 20.1537C21.6579 20.3366 21.5311 20.4557 21.3871 20.5109C21.2408 20.5476 21.1086 20.5449 20.9904 20.5028C20.8699 20.4421 20.7739 20.3501 20.7024 20.2269C20.6471 20.0829 20.6476 19.9321 20.7038 19.7745C20.8442 19.3805 20.9602 19.0178 21.0517 18.6863C21.1432 18.3548 21.2068 18.0267 21.2426 17.702C21.297 17.3751 21.3235 17.0515 21.3222 16.7313C21.3186 16.3926 21.2942 16.0375 21.2489 15.6662C21.2308 15.5176 21.1756 15.3736 21.0832 15.2341ZM32.5242 20.2844C32.4622 20.0847 32.4013 19.8943 32.3415 19.7131C32.2817 19.532 32.1742 19.4226 32.0189 19.385C31.6919 19.3306 31.3566 19.362 31.0128 19.4793C30.6691 19.5966 30.3589 19.7569 30.0821 19.9602C29.8032 20.1449 29.574 20.3518 29.3946 20.581C29.213 20.7915 29.122 20.9722 29.1215 21.123C29.0997 21.4083 29.2068 21.6685 29.4427 21.9036C29.6787 22.1386 30.0074 22.3624 30.429 22.5748C31.1264 22.8855 31.8528 23.2022 32.6081 23.5247C33.3635 23.8472 34.0085 24.1926 34.5433 24.5608C35.0781 24.929 35.4608 25.3629 35.6912 25.8624C35.938 26.3411 35.971 26.9212 35.7903 27.6028C35.6471 28.129 35.3162 28.5839 34.7977 28.9674C34.2791 29.3509 33.6969 29.6763 33.0511 29.9434C32.403 30.192 31.7493 30.3941 31.0899 30.5498C30.4283 30.687 29.8653 30.7838 29.4012 30.8404C29.2897 30.854 29.146 30.8338 28.9698 30.7799C28.81 30.7052 28.649 30.6212 28.4868 30.5279C28.3433 30.4323 28.209 30.3356 28.0841 30.2378C27.9754 30.1191 27.9154 30.0133 27.9041 29.9205C27.8633 29.5863 27.9836 29.3361 28.2648 29.1699C28.5461 29.0037 28.8445 28.9014 29.1602 28.863C29.6058 28.8087 30.077 28.7324 30.5738 28.6342C31.0869 28.5151 31.5699 28.3809 32.0228 28.2315C32.4734 28.0635 32.8742 27.8733 33.2252 27.661C33.5762 27.4486 33.8101 27.2034 33.927 26.9254C34.0298 26.6867 33.9146 26.4369 33.5813 26.1761C33.2643 25.8944 32.8441 25.6158 32.3206 25.3404C31.8157 25.0628 31.2655 24.8 30.67 24.5523C30.0931 24.3022 29.5938 24.071 29.1722 23.8586C28.7506 23.6461 28.379 23.3805 28.0575 23.0616C27.7338 22.7242 27.5019 22.2908 27.3621 21.7614C27.2847 21.2809 27.3302 20.8043 27.4987 20.3315C27.6672 19.8587 27.9075 19.4337 28.2196 19.0565C28.548 18.6585 28.9318 18.3291 29.3711 18.0683C29.8104 17.8074 30.2621 17.6488 30.7263 17.5922C31.5293 17.532 32.2156 17.6745 32.7852 18.0197C33.3527 18.3462 33.7303 18.8938 33.9182 19.6623C33.9498 19.9223 33.9294 20.1414 33.857 20.3199C33.8031 20.496 33.6762 20.6151 33.4765 20.6771C33.2211 20.7459 33.0042 20.7441 32.8258 20.6716C32.6636 20.5783 32.5631 20.4493 32.5242 20.2844ZM52.7738 14.0859C52.7502 14.2018 52.6361 14.3476 52.4314 14.5233C52.2267 14.699 52.05 14.7959 51.9015 14.814C51.094 14.837 50.2877 14.8693 49.4825 14.9109C48.6959 14.9502 47.893 15.0104 47.0737 15.0914C47.2643 15.7277 47.4456 16.3651 47.6177 17.0036C47.8082 17.6399 47.9896 18.2774 48.1616 18.9159C49.7331 18.6679 51.2826 18.3943 52.8101 18.0951C53.0701 18.0634 53.3402 18.1153 53.6205 18.2507C53.9008 18.3861 54.05 18.5281 54.0681 18.6767C54.093 18.8809 54.0321 19.0768 53.8853 19.2642C53.7363 19.4332 53.5434 19.5509 53.3065 19.6174C52.5425 19.8424 51.7658 20.0407 50.9765 20.2123C50.2034 20.363 49.4107 20.5067 48.5982 20.6434C48.7702 21.282 48.9237 21.9228 49.0586 22.5659C49.2098 23.1881 49.3517 23.8115 49.4844 24.436C49.5532 24.6914 49.5593 24.9733 49.5026 25.2817C49.4623 25.5693 49.3493 25.7244 49.1636 25.747C48.9965 25.7674 48.833 25.7402 48.6732 25.6655C48.5133 25.5907 48.3616 25.5056 48.2181 25.41C48.0908 25.2936 47.981 25.1657 47.8886 25.0262C47.7963 24.8867 47.734 24.7624 47.7019 24.6532C47.3216 23.079 46.9239 21.5164 46.5088 19.9653C46.1122 18.4119 45.6866 16.8527 45.2321 15.2875L44.313 15.3995C44.0531 15.4312 43.8083 15.4328 43.5787 15.4042C43.3491 15.3757 43.165 15.2568 43.0265 15.0475C42.9825 14.9963 42.9434 14.9069 42.909 14.7792C42.8931 14.6492 42.8866 14.5181 42.8893 14.3859C42.9106 14.2514 42.9516 14.1239 43.0123 14.0034C43.073 13.883 43.1661 13.7963 43.2915 13.7433C44.0021 13.5436 44.767 13.4033 45.5862 13.3223C46.424 13.2391 47.2385 13.1964 48.0297 13.1942C48.8371 13.1712 49.5934 13.1921 50.2985 13.2569C51.0222 13.3194 51.6449 13.4037 52.1666 13.5098C52.5048 13.657 52.7072 13.849 52.7738 14.0859ZM63.5838 15.1994C63.2722 15.4258 62.9431 15.6637 62.5967 15.9132C62.2688 16.1605 61.9361 16.446 61.5987 16.7697C61.2776 17.0727 60.9726 17.4302 60.6836 17.8423C60.4109 18.2335 60.1752 18.6956 59.9763 19.2286C59.6909 19.9795 59.5285 20.7342 59.489 21.4927C59.4473 22.2327 59.4509 22.9577 59.4997 23.6678C59.5404 24.002 59.4987 24.3557 59.3746 24.7289C59.2668 25.0812 59.0736 25.2743 58.7951 25.3083C58.4423 25.3512 58.133 25.2099 57.8672 24.8843C57.6177 24.5378 57.4355 24.202 57.3205 23.8768C56.8442 22.597 56.4259 21.3289 56.0655 20.0727C55.7029 18.7978 55.3692 17.5288 55.0646 16.2658C55.0329 16.0058 55.0868 15.8297 55.2263 15.7373C55.3844 15.6427 55.5666 15.5922 55.7731 15.5859C55.9982 15.5773 56.2185 15.607 56.4341 15.6749C56.6497 15.7429 56.7884 15.8767 56.8505 16.0764C57.0085 16.7544 57.1895 17.4672 57.3937 18.2149C57.5956 18.944 57.7851 19.571 57.9621 20.0959C57.9595 19.4556 58.089 18.818 58.3508 18.1831C58.6127 17.5482 58.9555 16.9599 59.3795 16.4183C59.822 15.8745 60.3292 15.3981 60.9012 14.9892C61.4918 14.5781 62.1052 14.2772 62.7415 14.0866C63.0155 14.0155 63.2476 13.9873 63.4378 14.0018C63.628 14.0163 63.7659 14.0654 63.8515 14.1492C63.9371 14.233 63.9645 14.3804 63.9336 14.5914C63.9214 14.8002 63.8048 15.0029 63.5838 15.1994ZM72.3787 17.2368C71.7066 17.7521 70.9675 18.1814 70.1613 18.5246C69.3529 18.8492 68.466 19.0703 67.5005 19.188C67.6168 19.8333 67.8658 20.3306 68.2476 20.6798C68.627 21.0104 69.072 21.1823 69.5823 21.1955C69.8839 21.1964 70.1799 21.151 70.4702 21.0591C70.779 20.9649 71.0567 20.8463 71.303 20.7032C71.5657 20.5393 71.7994 20.3695 72.0041 20.1938C72.2088 20.0181 72.3857 19.8458 72.5347 19.6769C72.6837 19.508 72.8488 19.3936 73.0299 19.3339C73.2088 19.2555 73.347 19.2293 73.4443 19.2551C73.7156 19.3163 73.8424 19.5835 73.8247 20.0567C73.6 20.6871 73.2351 21.2497 72.7301 21.7447C72.2229 22.221 71.6326 22.5568 70.9591 22.7519C70.3785 22.9357 69.7624 22.9825 69.1107 22.8924C68.4591 22.8022 67.8532 22.5462 67.293 22.1246C66.8139 21.7496 66.4279 21.2878 66.1349 20.7394C65.842 20.1909 65.6303 19.6137 65.5 19.0078C65.3741 18.439 65.3538 17.8856 65.439 17.3476C65.5427 16.8073 65.738 16.3219 66.0247 15.8912C66.3091 15.442 66.6861 15.0569 67.1558 14.7358C67.6254 14.4148 68.1922 14.195 68.8561 14.0764C69.6478 13.9234 70.39 13.9837 71.0829 14.2573C71.7757 14.5309 72.2906 14.9675 72.6275 15.5671C72.819 15.9018 72.8935 16.2037 72.8509 16.4727C72.8268 16.7394 72.6695 16.9941 72.3787 17.2368ZM68.945 15.7332C68.7638 15.793 68.5675 15.8829 68.356 16.0028C68.1631 16.1206 67.9828 16.265 67.8152 16.4362C67.664 16.5865 67.5254 16.7636 67.3995 16.9674C67.2898 17.1503 67.2393 17.3543 67.2479 17.5794C67.5636 17.5409 67.9037 17.4712 68.2682 17.3703C68.6514 17.267 69.0148 17.1568 69.3585 17.0395C69.7186 16.9015 70.0404 16.7586 70.3239 16.611C70.6259 16.4611 70.8712 16.3088 71.0596 16.1539C70.8681 15.8192 70.5635 15.6396 70.146 15.6151C69.7448 15.5698 69.3444 15.6092 68.945 15.7332ZM82.143 16.047C81.4709 16.5623 80.7318 16.9915 79.9257 17.3347C79.1173 17.6593 78.2303 17.8805 77.2648 17.9981C77.3812 18.6435 77.6302 19.1407 78.0119 19.4899C78.3914 19.8206 78.8363 19.9925 79.3467 20.0057C79.6483 20.0066 79.9442 19.9611 80.2345 19.8692C80.5434 19.775 80.821 19.6564 81.0674 19.5133C81.3301 19.3494 81.5638 19.1796 81.7685 19.0039C81.9732 18.8282 82.15 18.6559 82.2991 18.487C82.4481 18.3181 82.6131 18.2038 82.7943 18.144C82.9732 18.0657 83.1113 18.0394 83.2087 18.0653C83.4799 18.1264 83.6067 18.3936 83.589 18.8669C83.3643 19.4972 82.9995 20.0599 82.4945 20.5548C81.9873 21.0312 81.3969 21.3669 80.7235 21.5621C80.1429 21.7459 79.5268 21.7927 78.8751 21.7025C78.2234 21.6123 77.6175 21.3564 77.0574 20.9347C76.5783 20.5597 76.1922 20.098 75.8993 19.5495C75.6063 19.0011 75.3947 18.4239 75.2643 17.8179C75.1385 17.2491 75.1181 16.6957 75.2033 16.1577C75.3071 15.6175 75.5023 15.132 75.789 14.7014C76.0735 14.2521 76.4505 13.867 76.9202 13.546C77.3898 13.2249 77.9566 13.0051 78.6205 12.8865C79.4121 12.7335 80.1544 12.7938 80.8472 13.0674C81.5401 13.341 82.0549 13.7776 82.3918 14.3773C82.5834 14.712 82.6578 15.0138 82.6152 15.2828C82.5912 15.5495 82.4338 15.8043 82.143 16.047ZM78.7093 14.5434C78.5282 14.6031 78.3319 14.693 78.1204 14.813C77.9274 14.9307 77.7472 15.0752 77.5796 15.2463C77.4283 15.3967 77.2897 15.5737 77.1638 15.7775C77.0542 15.9604 77.0037 16.1645 77.0123 16.3895C77.3279 16.3511 77.668 16.2814 78.0326 16.1804C78.4157 16.0772 78.7792 15.9669 79.1229 15.8497C79.4829 15.7116 79.8047 15.5687 80.0882 15.4211C80.3903 15.2713 80.6355 15.1189 80.8239 14.964C80.6324 14.6294 80.3279 14.4498 79.9103 14.4253C79.5091 14.3799 79.1088 14.4193 78.7093 14.5434Z" fill="white"/>
<path d="M59.7814 36.0344C59.3183 35.3475 58.386 35.166 57.6991 35.6291C57.0122 36.0922 56.8308 37.0244 57.2938 37.7113L59.7814 36.0344ZM118.143 39.5264L117.333 38.2637L118.143 39.5264ZM130.573 30.5659L113.351 32.4125L123.561 46.4037L130.573 30.5659ZM57.2938 37.7113C60.4019 42.3217 65.5536 44.6514 70.7938 46.0197C76.0039 47.3803 81.721 47.8785 85.9689 48.5432L86.4327 45.5792C81.8858 44.8678 76.5734 44.4284 71.5517 43.1171C66.56 41.8136 62.2775 39.7372 59.7814 36.0344L57.2938 37.7113ZM85.9689 48.5432C98.299 50.4726 108.656 47.3923 118.953 40.789L117.333 38.2637C107.513 44.5616 97.8878 47.3717 86.4327 45.5792L85.9689 48.5432ZM118.953 40.789C119.476 40.4536 119.993 40.1131 120.505 39.7685L118.83 37.2798C118.334 37.6131 117.836 37.9414 117.333 38.2637L118.953 40.789Z" fill="white"/>
</svg>
