<svg width="848" height="867" viewBox="0 0 848 867" fill="none" xmlns="http://www.w3.org/2000/svg">
<g opacity="0.35" filter="url(#filter0_f_51_142)">
<rect x="270.771" y="263" width="275.302" height="275.302" fill="#FD733C"/>
<rect x="360.664" y="310.147" width="275.302" height="275.302" fill="#005DFF"/>
</g>
<g opacity="0.2">
<g opacity="0.75">
<circle cx="110.948" cy="110.948" r="110.504" transform="matrix(1.19249e-08 -1 -1 -1.19249e-08 567.071 819.515)" stroke="white" stroke-width="0.887583" stroke-dasharray="6.98 6.98"/>
<circle cx="166.422" cy="166.422" r="165.756" transform="matrix(1.19249e-08 -1 -1 -1.19249e-08 622.989 819.515)" stroke="white" stroke-width="1.33137" stroke-dasharray="6.98 6.98"/>
<circle cx="227.665" cy="227.665" r="226.833" transform="matrix(1.19249e-08 -1 -1 -1.19249e-08 684.232 819.515)" stroke="white" stroke-width="1.66422" stroke-dasharray="6.98 6.98"/>
<circle cx="278.257" cy="278.257" r="277.425" transform="matrix(1.19249e-08 -1 -1 -1.19249e-08 734.824 819.515)" stroke="white" stroke-width="1.66422" stroke-dasharray="6.98 6.98"/>
</g>
<circle cx="9.01356" cy="9.01356" r="9.01356" transform="matrix(1.19249e-08 -1 -1 -1.19249e-08 402.195 627.613)" fill="#BB36DB" fill-opacity="0.48"/>
<circle cx="9.01356" cy="9.01356" r="9.01356" transform="matrix(1.19249e-08 -1 -1 -1.19249e-08 528.385 627.613)" fill="#BB36DB" fill-opacity="0.48"/>
<circle cx="9.01356" cy="9.01356" r="9.01356" transform="matrix(1.19249e-08 -1 -1 -1.19249e-08 576.651 726.472)" fill="#BB36DB" fill-opacity="0.48"/>
<circle cx="9.01356" cy="9.01356" r="9.01356" transform="matrix(1.19249e-08 -1 -1 -1.19249e-08 622.009 606.678)" fill="#BB36DB" fill-opacity="0.48"/>
<circle cx="9.01356" cy="9.01356" r="9.01356" transform="matrix(1.19249e-08 -1 -1 -1.19249e-08 478.374 500.26)" fill="#BB36DB" fill-opacity="0.48"/>
<circle cx="9.01356" cy="9.01356" r="9.01356" transform="matrix(1.19249e-08 -1 -1 -1.19249e-08 443.483 377.56)" fill="#BB36DB" fill-opacity="0.48"/>
<circle cx="9.01356" cy="9.01356" r="9.01356" transform="matrix(1.19249e-08 -1 -1 -1.19249e-08 616.776 431.059)" fill="#BB36DB" fill-opacity="0.48"/>
<circle cx="9.01356" cy="9.01356" r="9.01356" transform="matrix(1.19249e-08 -1 -1 -1.19249e-08 346.369 408.38)" fill="#BB36DB" fill-opacity="0.48"/>
<circle cx="9.01356" cy="9.01356" r="9.01356" transform="matrix(1.19249e-08 -1 -1 -1.19249e-08 238.788 606.678)" fill="#BB36DB" fill-opacity="0.48"/>
<circle cx="9.01356" cy="9.01356" r="9.01356" transform="matrix(1.19249e-08 -1 -1 -1.19249e-08 189.94 518.287)" fill="#BB36DB" fill-opacity="0.48"/>
<circle cx="9.01356" cy="9.01356" r="9.01356" transform="matrix(1.19249e-08 -1 -1 -1.19249e-08 389.983 284.516)" fill="#BB36DB" fill-opacity="0.48"/>
</g>
<path d="M619.2 865.8C644.439 865.8 664.9 861.502 664.9 856.2C664.9 850.898 644.439 846.6 619.2 846.6C593.961 846.6 573.5 850.898 573.5 856.2C573.5 861.502 593.961 865.8 619.2 865.8Z" fill="#212C69" stroke="#212C69" stroke-width="0.662" stroke-miterlimit="10"/>
<path d="M680.5 826.1H622.1C619.9 826.1 618 824.3 618 822V806.4C618 804.2 619.8 802.3 622.1 802.3H680.5C682.7 802.3 684.6 804.1 684.6 806.4V822C684.5 824.3 682.7 826.1 680.5 826.1Z" fill="#4A7AA1" stroke="#212C69" stroke-width="0.768" stroke-miterlimit="10"/>
<path d="M343.5 826.1H285.1C282.9 826.1 281 824.3 281 822V806.4C281 804.2 282.8 802.3 285.1 802.3H343.5C345.7 802.3 347.6 804.1 347.6 806.4V822C347.5 824.3 345.7 826.1 343.5 826.1Z" fill="#4A7AA1" stroke="#212C69" stroke-width="0.768" stroke-miterlimit="10"/>
<path d="M688.3 820.7H271V827.9H688.3V820.7Z" fill="#864AA1" stroke="#212C69" stroke-width="0.768" stroke-miterlimit="10"/>
<path d="M402.1 660.7L314.2 733V824.7H476.6V658.7L402.1 660.7Z" fill="#E785FF" stroke="#212C69" stroke-width="0.768" stroke-miterlimit="10"/>
<path d="M597.9 729.6L521.3 657.5L476.6 658.7V824.7H597.9V729.6Z" fill="#DE59FF" stroke="#212C69" stroke-width="0.768" stroke-miterlimit="10"/>
<path d="M314.2 733H295.9V728L403.2 650.7H534.3L641.1 728V734.6H514.1L409.1 662.7L314.2 733Z" fill="#4F8FFF" stroke="#212C69" stroke-width="0.768" stroke-miterlimit="10"/>
<path d="M409.1 662.7L402.1 655.3L295.9 731.5V733H314.2L409.1 662.7Z" fill="#8C4EA8" stroke="#212C69" stroke-width="0.768" stroke-miterlimit="10"/>
<path d="M402.1 655.3L404 653.3L515.5 731L514.1 734.6L402.1 655.3Z" fill="#8C4EA8" stroke="#212C69" stroke-width="0.768" stroke-miterlimit="10"/>
<path d="M641.1 729.6H513.5V734.5H641.1V729.6Z" fill="#8C4EA8" stroke="#212C69" stroke-width="0.768" stroke-miterlimit="10"/>
<path d="M323.1 726.5L311.2 720.5L314.4 718.2L326.3 724.2L323.1 726.5Z" fill="#4F8FFF" stroke="#212C69" stroke-width="0.768" stroke-miterlimit="10"/>
<path d="M339.8 713.6L329.1 708.1L332.3 705.8L343.1 711.3L339.8 713.6Z" fill="#4F8FFF" stroke="#212C69" stroke-width="0.768" stroke-miterlimit="10"/>
<path d="M362.3 697.3L351.5 691.8L354.8 689.4L365.5 694.9L362.3 697.3Z" fill="#4F8FFF" stroke="#212C69" stroke-width="0.768" stroke-miterlimit="10"/>
<path d="M382.7 682.4L372 676.9L375.2 674.6L386 680.1L382.7 682.4Z" fill="#4F8FFF" stroke="#212C69" stroke-width="0.768" stroke-miterlimit="10"/>
<path d="M455.8 737.5H302.3V759.8H455.8V737.5Z" fill="#EC9EFF" stroke="#212C69" stroke-width="0.768" stroke-miterlimit="10"/>
<path d="M476.7 737.5H455.9V759.8H476.7V737.5Z" fill="#AA72B8" stroke="#212C69" stroke-width="0.768" stroke-miterlimit="10"/>
<path d="M410.5 709.2C416.741 709.2 421.8 703.873 421.8 697.3C421.8 690.728 416.741 685.4 410.5 685.4C404.259 685.4 399.2 690.728 399.2 697.3C399.2 703.873 404.259 709.2 410.5 709.2Z" fill="#FAF0FF" stroke="#212C69" stroke-width="0.768" stroke-miterlimit="10"/>
<path d="M410.5 705.9C415.029 705.9 418.7 702.05 418.7 697.3C418.7 692.551 415.029 688.7 410.5 688.7C405.971 688.7 402.3 692.551 402.3 697.3C402.3 702.05 405.971 705.9 410.5 705.9Z" fill="#4A4482" stroke="#212C69" stroke-width="0.662" stroke-miterlimit="10"/>
<path d="M329.1 730.4L381.5 693.4V730.4H329.1Z" fill="#FAF0FF" stroke="#212C69" stroke-width="0.768" stroke-miterlimit="10"/>
<path d="M341.6 726.5L378.1 700.7V726.5H341.6Z" fill="#4A4482" stroke="#212C69" stroke-width="0.662" stroke-miterlimit="10"/>
<path d="M381.5 729.7H328.1V733H381.5V729.7Z" fill="#FAF0FF" stroke="#212C69" stroke-width="0.768" stroke-miterlimit="10"/>
<path d="M341.6 726.5L378.1 700.7V704L345.2 726.5H341.6Z" fill="#212C69" stroke="#212C69" stroke-width="0.662" stroke-miterlimit="10"/>
<path d="M406.9 689.6C406.9 689.6 403.3 693.6 404.1 698.6C404.9 703.6 408.7 705.9 408.7 705.9C408.7 705.9 403 704 402.4 698.8C402.3 698.8 401.6 692.5 406.9 689.6Z" fill="#212C69" stroke="#212C69" stroke-width="0.662" stroke-miterlimit="10" stroke-linecap="round" stroke-linejoin="round"/>
<path d="M411.9 771.9H333V810.6H411.9V771.9Z" fill="#FAF0FF" stroke="#212C69" stroke-width="0.768" stroke-miterlimit="10"/>
<path d="M408.7 774.2H336.1V808.2H408.7V774.2Z" fill="#4A4482" stroke="#212C69" stroke-width="0.662" stroke-miterlimit="10"/>
<path d="M416.5 810.6H325.5V814H416.5V810.6Z" fill="#FAF0FF" stroke="#212C69" stroke-width="0.768" stroke-miterlimit="10"/>
<path d="M352.5 774.2H349V808.2H352.5V774.2Z" fill="#FAF0FF" stroke="#212C69" stroke-width="0.768" stroke-miterlimit="10"/>
<path d="M380.8 774.2H377.3V808.2H380.8V774.2Z" fill="#FAF0FF" stroke="#212C69" stroke-width="0.768" stroke-miterlimit="10"/>
<path d="M467.2 773.4H449.9V824.7H467.2V773.4Z" fill="#FAF0FF" stroke="#212C69" stroke-width="0.768" stroke-miterlimit="10"/>
<path d="M465 776.4H452.2V821.8H465V776.4Z" fill="#AA72B8" stroke="#212C69" stroke-width="0.768" stroke-miterlimit="10"/>
<path d="M467.2 816.2H445V820.5H467.2V816.2Z" fill="#FAF0FF" stroke="#212C69" stroke-width="0.768" stroke-miterlimit="10"/>
<path d="M467.2 816.4H459.7V820.7H467.2V816.4Z" fill="#FAF0FF" stroke="#212C69" stroke-width="0.768" stroke-miterlimit="10"/>
<path d="M467.2 820.5H440.5V824.8H467.2V820.5Z" fill="#FAF0FF" stroke="#212C69" stroke-width="0.768" stroke-miterlimit="10"/>
<path d="M467.2 820.5H456.1V824.8H467.2V820.5Z" fill="#FAF0FF" stroke="#212C69" stroke-width="0.768" stroke-miterlimit="10"/>
<path d="M623.3 745.4H494.4V824.7H623.3V745.4Z" fill="#EC9EFF" stroke="#212C69" stroke-width="0.768" stroke-miterlimit="10"/>
<path d="M623.3 745.4H580.2V824.7H623.3V745.4Z" fill="#4F8FFF" stroke="#212C69" stroke-width="0.768" stroke-miterlimit="10"/>
<path d="M631.9 741.1H494.4V745.4H631.9V741.1Z" fill="#4F8FFF" stroke="#212C69" stroke-width="0.768" stroke-miterlimit="10"/>
<path d="M631.9 741.1H590.5V745.4H631.9V741.1Z" fill="#864AA1" stroke="#212C69" stroke-width="0.768" stroke-miterlimit="10"/>
<path d="M573.5 759.8H505.6V808.2H573.5V759.8Z" fill="#FAF0FF" stroke="#212C69" stroke-width="0.768" stroke-miterlimit="10"/>
<path d="M570.3 763H508.8V805.1H570.3V763Z" fill="#4A4482" stroke="#212C69" stroke-width="0.662" stroke-miterlimit="10"/>
<path d="M575.2 807.2H503.3V812.2H575.2V807.2Z" fill="#FAF0FF" stroke="#212C69" stroke-width="0.768" stroke-miterlimit="10"/>
<path d="M542.2 763H539.3V805.1H542.2V763Z" fill="#FAF0FF" stroke="#212C69" stroke-width="0.768" stroke-miterlimit="10"/>
<path d="M616.8 759.8H588.2V812.2H616.8V759.8Z" fill="#FAF0FF" stroke="#212C69" stroke-width="0.768" stroke-miterlimit="10"/>
<path d="M613.6 762.3H591.4V809.7H613.6V762.3Z" fill="#4A4482" stroke="#212C69" stroke-width="0.662" stroke-miterlimit="10"/>
<path d="M617.9 809.3H587V812.3H617.9V809.3Z" fill="#FAF0FF" stroke="#212C69" stroke-width="0.768" stroke-miterlimit="10"/>
<path d="M392.4 662.3L505.6 737.5H597.9V734.6H513.5L402.1 655.3L392.4 662.3Z" fill="#212C69" stroke="#212C69" stroke-width="0.662" stroke-miterlimit="10"/>
<path d="M476.6 759.8L461.6 766.1H314.2V759.8H476.6Z" fill="#212C69" stroke="#212C69" stroke-width="0.662" stroke-miterlimit="10"/>
<path d="M381.5 733L377.5 737.2H326.3L329.1 733H381.5Z" fill="#212C69" stroke="#212C69" stroke-width="0.662" stroke-miterlimit="10"/>
<path d="M416.5 813.9L412 818.8H323.5L325.5 813.9H416.5Z" fill="#212C69" stroke="#212C69" stroke-width="0.662" stroke-miterlimit="10"/>
<path d="M338.5 774.2H336.1V808.2H338.5V774.2Z" fill="#212C69" stroke="#212C69" stroke-width="0.662" stroke-miterlimit="10"/>
<path d="M354.9 774.2H352.5V808.2H354.9V774.2Z" fill="#212C69" stroke="#212C69" stroke-width="0.662" stroke-miterlimit="10"/>
<path d="M383.2 774.2H380.8V808.2H383.2V774.2Z" fill="#212C69" stroke="#212C69" stroke-width="0.662" stroke-miterlimit="10"/>
<path d="M455.1 776.4H452.2V816.2H455.1V776.4Z" fill="#212C69" stroke="#212C69" stroke-width="0.662" stroke-miterlimit="10"/>
<path d="M512.1 763H508.8V805.1H512.1V763Z" fill="#212C69" stroke="#212C69" stroke-width="0.662" stroke-miterlimit="10"/>
<path d="M545.5 763H542.2V805.1H545.5V763Z" fill="#212C69" stroke="#212C69" stroke-width="0.662" stroke-miterlimit="10"/>
<path d="M613.6 763H610.3V809.3H613.6V763Z" fill="#212C69" stroke="#212C69" stroke-width="0.662" stroke-miterlimit="10"/>
<path d="M651.8 851V845.6H645.8C639.7 843.2 629.5 841.6 618 841.6C606.5 841.6 596.3 843.2 590.2 845.6H584.2V851C584.2 856.2 599.3 860.4 618 860.4C636.7 860.4 651.8 856.2 651.8 851Z" fill="#FFE09E" stroke="#212C69" stroke-width="0.6131" stroke-miterlimit="10"/>
<path d="M618 855C636.667 855 651.8 850.792 651.8 845.6C651.8 840.409 636.667 836.2 618 836.2C599.333 836.2 584.2 840.409 584.2 845.6C584.2 850.792 599.333 855 618 855Z" fill="#FFE09E" stroke="#212C69" stroke-width="0.6131" stroke-miterlimit="10"/>
<path d="M618 852.6C633.52 852.6 646.1 849.466 646.1 845.6C646.1 841.734 633.52 838.6 618 838.6C602.481 838.6 589.9 841.734 589.9 845.6C589.9 849.466 602.481 852.6 618 852.6Z" fill="#FFE09E" stroke="#212C69" stroke-width="0.6131" stroke-miterlimit="10"/>
<path d="M618 840.7C632.1 840.7 643.8 843.3 645.8 846.6C646 846.3 646.1 845.9 646.1 845.6C646.1 841.8 633.5 838.6 618 838.6C602.5 838.6 589.9 841.7 589.9 845.6C589.9 845.9 590 846.3 590.2 846.6C592.2 843.3 603.9 840.7 618 840.7Z" fill="#FFE09E" stroke="#212C69" stroke-width="0.6131" stroke-miterlimit="10"/>
<path d="M651.8 841.3V835.9H645.8C639.7 833.5 629.5 831.9 618 831.9C606.5 831.9 596.3 833.5 590.2 835.9H584.2V841.3C584.2 846.5 599.3 850.7 618 850.7C636.7 850.8 651.8 846.5 651.8 841.3Z" fill="#FFE09E" stroke="#212C69" stroke-width="0.6131" stroke-miterlimit="10"/>
<path d="M618 845.301C636.667 845.301 651.8 841.092 651.8 835.9C651.8 830.709 636.667 826.5 618 826.5C599.333 826.5 584.2 830.709 584.2 835.9C584.2 841.092 599.333 845.301 618 845.301Z" fill="#FFE09E" stroke="#212C69" stroke-width="0.6131" stroke-miterlimit="10"/>
<path d="M618 842.9C633.52 842.9 646.1 839.766 646.1 835.9C646.1 832.034 633.52 828.9 618 828.9C602.481 828.9 589.9 832.034 589.9 835.9C589.9 839.766 602.481 842.9 618 842.9Z" fill="#FFE09E" stroke="#212C69" stroke-width="0.6131" stroke-miterlimit="10"/>
<path d="M618 831C632.1 831 643.8 833.6 645.8 836.9C646 836.6 646.1 836.2 646.1 835.9C646.1 832.1 633.5 828.9 618 828.9C602.5 828.9 589.9 832 589.9 835.9C589.9 836.2 590 836.6 590.2 836.9C592.2 833.6 603.9 831 618 831Z" fill="#FFE09E" stroke="#212C69" stroke-width="0.6131" stroke-miterlimit="10"/>
<path d="M651.8 831.7V826.3H645.8C639.7 823.9 629.5 822.3 618 822.3C606.5 822.3 596.3 823.9 590.2 826.3H584.2V831.7C584.2 836.9 599.3 841.1 618 841.1C636.7 841.1 651.8 836.9 651.8 831.7Z" fill="#FFE09E" stroke="#212C69" stroke-width="0.6131" stroke-miterlimit="10"/>
<path d="M618 835.7C636.667 835.7 651.8 831.492 651.8 826.3C651.8 821.109 636.667 816.9 618 816.9C599.333 816.9 584.2 821.109 584.2 826.3C584.2 831.492 599.333 835.7 618 835.7Z" fill="#FFE09E" stroke="#212C69" stroke-width="0.6131" stroke-miterlimit="10"/>
<path d="M618 833.3C633.52 833.3 646.1 830.166 646.1 826.3C646.1 822.434 633.52 819.3 618 819.3C602.481 819.3 589.9 822.434 589.9 826.3C589.9 830.166 602.481 833.3 618 833.3Z" fill="#FFE09E" stroke="#212C69" stroke-width="0.6131" stroke-miterlimit="10"/>
<path d="M618 821.4C632.1 821.4 643.8 824 645.8 827.3C646 827 646.1 826.6 646.1 826.3C646.1 822.5 633.5 819.3 618 819.3C602.5 819.3 589.9 822.4 589.9 826.3C589.9 826.6 590 827 590.2 827.3C592.2 824 603.9 821.4 618 821.4Z" fill="#FFE09E" stroke="#212C69" stroke-width="0.6131" stroke-miterlimit="10"/>
<path d="M651.8 822V816.6H645.8C639.7 814.2 629.5 812.6 618 812.6C606.5 812.6 596.3 814.2 590.2 816.6H584.2V822C584.2 827.2 599.3 831.4 618 831.4C636.7 831.5 651.8 827.2 651.8 822Z" fill="#FFE09E" stroke="#212C69" stroke-width="0.6131" stroke-miterlimit="10"/>
<path d="M618 826.1C636.667 826.1 651.8 821.892 651.8 816.7C651.8 811.509 636.667 807.3 618 807.3C599.333 807.3 584.2 811.509 584.2 816.7C584.2 821.892 599.333 826.1 618 826.1Z" fill="#FFE09E" stroke="#212C69" stroke-width="0.6131" stroke-miterlimit="10"/>
<path d="M618 823.7C633.52 823.7 646.1 820.566 646.1 816.7C646.1 812.834 633.52 809.7 618 809.7C602.481 809.7 589.9 812.834 589.9 816.7C589.9 820.566 602.481 823.7 618 823.7Z" fill="#FFE09E" stroke="#212C69" stroke-width="0.6131" stroke-miterlimit="10"/>
<path d="M618 811.8C632.1 811.8 643.8 814.4 645.8 817.7C646 817.4 646.1 817 646.1 816.7C646.1 812.9 633.5 809.7 618 809.7C602.5 809.7 589.9 812.8 589.9 816.7C589.9 817 590 817.4 590.2 817.7C592.2 814.3 603.9 811.8 618 811.8Z" fill="#FFE09E" stroke="#212C69" stroke-width="0.6131" stroke-miterlimit="10"/>
<path d="M615.2 550.1C615.2 550.1 536.7 590.7 533.4 593.1C530.1 595.5 465.5 650.7 465.5 650.7H492.3H534.2C534.2 650.7 555.9 635.1 558.9 634C561.9 633 581.7 627.4 581.7 627.4C581.7 627.4 575.4 657.5 573.4 661.3C571.4 665.1 547.6 697.7 547.6 697.7C547.6 697.7 545.3 706 547.6 709.2C549.9 712.3 553.6 711.6 553.6 711.6C553.6 711.6 598.6 672.1 602.4 666.5C606.2 660.9 619.7 629.1 623.2 624.9C626.7 620.7 646.6 602.2 646.6 602.2L615.2 550.1Z" fill="#FFB0F3" stroke="#212C69" stroke-width="0.768" stroke-miterlimit="10"/>
<path d="M492.4 650.7C492.4 650.7 518.9 635.8 529.5 632.6C540.1 629.4 581.8 627.4 581.8 627.4C581.8 627.4 542.8 634.4 539.3 636.1C535.8 637.8 515.6 650.7 515.6 650.7" fill="#212C69"/>
<path d="M492.4 650.7C492.4 650.7 518.9 635.8 529.5 632.6C540.1 629.4 581.8 627.4 581.8 627.4C581.8 627.4 542.8 634.4 539.3 636.1C535.8 637.8 515.6 650.7 515.6 650.7" stroke="#212C69" stroke-width="0.662" stroke-miterlimit="10"/>
<path d="M612.1 545.8L652.1 615.2L693.6 587.6L648.9 516.3L612.1 545.8Z" fill="#C7D1DD" stroke="#212C69" stroke-width="0.768" stroke-miterlimit="10"/>
<path d="M647.9 517.105L692.6 588.405L732 570.305C732 570.305 733.627 538.666 732 518.5C730.773 503.286 729.5 496 726.5 479.805C725.06 472.029 721 458.305 721 458.305L647.9 517.105Z" fill="#315D96" stroke="#212C69" stroke-width="0.768" stroke-miterlimit="10"/>
<path d="M666 585.2C666 588.1 663.7 590.5 661 590.5C658.2 590.5 656 588.1 656 585.2C656 582.3 658.3 579.9 661 579.9C663.8 579.9 666 582.2 666 585.2Z" fill="#FFEBFC" stroke="#212C69" stroke-width="0.768" stroke-miterlimit="10"/>
<path d="M465.6 650.7H535.3L541 645.9L465.6 650.7Z" fill="#212C69" stroke="#212C69" stroke-width="0.662" stroke-miterlimit="10"/>
<path d="M547.7 697.7C547.7 697.7 545 707.1 547.7 709.2C550.4 711.3 552.7 711.7 552.7 711.7L557.2 708.5C557.2 708.5 564.6 712.2 564.4 712.9C564.2 713.6 555.9 716.8 550.7 716.5C545.5 716.2 542.2 713.1 542.2 713.1C542.2 713.1 545.2 698.9 547.7 697.7Z" fill="#212C69" stroke="#212C69" stroke-width="0.662" stroke-miterlimit="10"/>
<path d="M615.2 550.1L645.3 603.5L637.1 611.2L615.2 550.1Z" fill="#212C69" stroke="#212C69" stroke-width="0.662" stroke-miterlimit="10"/>
<defs>
<filter id="filter0_f_51_142" x="0.204681" y="-7.5668" width="906.328" height="863.583" filterUnits="userSpaceOnUse" color-interpolation-filters="sRGB">
<feFlood flood-opacity="0" result="BackgroundImageFix"/>
<feBlend mode="normal" in="SourceGraphic" in2="BackgroundImageFix" result="shape"/>
<feGaussianBlur stdDeviation="135.283" result="effect1_foregroundBlur_51_142"/>
</filter>
</defs>
</svg>
